<svg width="100" height="100" viewBox="0 0 100 100" fill="none" xmlns="http://www.w3.org/2000/svg">
<rect width="100" height="100" fill="#8F0000"/>
<path d="M49.4961 56.2363C49.6016 57.4316 49.9297 58.334 50.4805 58.9434C50.5742 59.2129 50.7559 59.4004 51.0254 59.5059C51.2949 59.5996 51.6641 59.6758 52.1328 59.7344C52.4844 59.7812 52.748 59.8281 52.9238 59.875C53.0996 59.9102 53.252 59.9805 53.3809 60.0859L53.3457 61H42.3945L42.3594 60.0859L42.9043 59.9102C43.5254 59.7109 44.0234 59.5293 44.3984 59.3652C44.7734 59.1895 45.0957 58.9375 45.3652 58.6094C45.6348 58.2695 45.7695 57.8301 45.7695 57.291L44.6797 42.2266L37.9648 57.3965C37.5547 58.3223 37.127 59.5234 36.6816 61H35.293C34.8125 59.9219 34.0098 58.2402 32.8848 55.9551C31.4082 52.8848 30.2305 50.4004 29.3516 48.502C28.4727 46.5918 27.6699 44.7285 26.9434 42.9121C26.8613 43.9082 26.7148 45.332 26.5039 47.1836C26.2695 49.3398 26.0938 51.1445 25.9766 52.5977C25.8594 54.0508 25.8008 55.4922 25.8008 56.9219C25.8008 57.5547 25.918 58.0586 26.1523 58.4336C26.3867 58.7969 26.6797 59.0723 27.0312 59.2598C27.3945 59.4473 27.8984 59.6523 28.543 59.875L29.1582 60.0859L29.123 61H20.6152L20.5801 60.0859C20.6738 60.0508 20.9844 59.9395 21.5117 59.752C22.0742 59.5645 22.5195 59.3887 22.8477 59.2246C23.1758 59.0488 23.457 58.7969 23.6914 58.4688C23.9375 58.1406 24.0898 57.6953 24.1484 57.1328L25.4844 43.9844C25.5664 43.1406 25.6074 42.3906 25.6074 41.7344C25.6074 41.2422 25.5137 40.8496 25.3262 40.5566C25.1504 40.2637 24.9219 40.0469 24.6406 39.9062C24.3594 39.7656 23.9844 39.6191 23.5156 39.4668C23.0234 39.3145 22.6367 39.1621 22.3555 39.0098L22.3906 38.1133H29.2285C29.4512 39.0625 29.6797 39.918 29.9141 40.6797C30.1602 41.4297 30.4414 42.1445 30.7578 42.8242L37.0859 56.3066L43.3613 41.998C43.666 41.3066 43.8828 40.627 44.0117 39.959C44.1406 39.2793 44.2051 38.6641 44.2051 38.1133H51.4824V39.0273L51.166 39.1328C50.5098 39.3555 49.9883 39.5605 49.6016 39.748C49.2266 39.9355 48.9043 40.2109 48.6348 40.5742C48.3652 40.9375 48.2305 41.4062 48.2305 41.9805L49.4961 56.2363ZM67.5488 56.5879C67.9238 55.5801 68.5684 54.0215 69.4824 51.9121C70.7129 49.0059 71.6445 46.7148 72.2773 45.0391C72.9102 43.3633 73.2266 42.1562 73.2266 41.418C73.2266 40.9727 73.1094 40.6211 72.875 40.3633C72.6406 40.1055 72.3535 39.918 72.0137 39.8008C71.6738 39.6719 71.2344 39.5488 70.6953 39.4316C70.2852 39.3496 69.9746 39.2734 69.7637 39.2031C69.7285 39.0391 69.7109 38.8691 69.7109 38.6934C69.7109 38.4941 69.7285 38.3008 69.7637 38.1133H78.834C78.8691 38.4297 78.8867 38.752 78.8867 39.0801C78.6523 39.2559 78.3652 39.4258 78.0254 39.5898C77.6973 39.7422 77.375 39.8887 77.0586 40.0293L76.6191 40.2402C76.209 40.4277 75.834 40.7676 75.4941 41.2598C75.166 41.752 74.8848 42.2793 74.6504 42.8418C74.4277 43.3926 74.1641 44.0957 73.8594 44.9512C73.5781 45.7012 73.4023 46.1699 73.332 46.3574C72.4766 48.3613 71.375 51.0625 70.0273 54.4609C68.6914 57.8594 67.8125 60.1035 67.3906 61.1934C67.332 61.2051 67.2031 61.2285 67.0039 61.2637C66.8164 61.3105 66.6582 61.334 66.5293 61.334C66.2129 61.334 65.9727 61.3223 65.8086 61.2988C63.2305 55.3691 60.3477 48.8945 57.1602 41.875C56.8789 41.2539 56.5918 40.7793 56.2988 40.4512C56.0059 40.123 55.6777 39.877 55.3145 39.7129C54.9512 39.5371 54.4062 39.3379 53.6797 39.1152L53.7148 38.1133H64.0684C64.0684 38.2188 64.0742 38.3125 64.0859 38.3945C64.0977 38.4648 64.1094 38.5293 64.1211 38.5879C64.1328 38.6582 64.1445 38.7402 64.1562 38.834C64.168 38.9277 64.1738 39.0391 64.1738 39.168C63.916 39.25 63.6875 39.3086 63.4883 39.3438C62.6914 39.543 62.0645 39.7539 61.6074 39.9766C61.1504 40.1992 60.9219 40.5391 60.9219 40.9961C60.9219 41.2891 61.2031 42.0918 61.7656 43.4043C62.3281 44.7168 63.2188 46.7383 64.4375 49.4688C65.9492 52.7969 66.9863 55.1699 67.5488 56.5879Z" fill="white"/>
<rect x="10.5" y="10.5" width="78" height="78" stroke="white"/>
</svg>
